<?xml version="1.0" encoding="utf-8"?>
<!-- Generator: Adobe Illustrator 21.1.0, SVG Export Plug-In . SVG Version: 6.00 Build 0)  -->
<svg version="1.1" id="Warstwa_1" xmlns="http://www.w3.org/2000/svg" xmlns:xlink="http://www.w3.org/1999/xlink" x="0px" y="0px"
	 viewBox="0 0 500.8 120.4" style="enable-background:new 0 0 500.8 120.4;" xml:space="preserve">
<style type="text/css">
	.st0{enable-background:new    ;}
	.st1{fill:#333333;}
</style>
<g class="st0">
	<path class="st1" d="M39.8,50.4H16.4L12,61.2H0l22.5-50.4H34l22.5,50.4H44.3L39.8,50.4z M36.1,41.5l-8-19.3l-8,19.3H36.1z"/>
</g>
<g class="st0">
	<path class="st1" d="M100.1,7.8v53.4H89.4v-4.5c-2.8,3.4-6.8,5-12.1,5c-3.6,0-6.9-0.8-9.9-2.4c-3-1.6-5.3-4-6.9-7
		c-1.7-3-2.5-6.5-2.5-10.5c0-4,0.8-7.5,2.5-10.5c1.7-3,4-5.4,6.9-7c3-1.6,6.3-2.4,9.9-2.4c4.9,0,8.8,1.6,11.6,4.7V7.8H100.1z
		 M86.3,49.6c1.9-1.9,2.8-4.5,2.8-7.8c0-3.3-0.9-5.9-2.8-7.8c-1.9-1.9-4.2-2.9-7.1-2.9c-2.9,0-5.3,1-7.1,2.9
		c-1.9,1.9-2.8,4.5-2.8,7.8c0,3.3,0.9,5.9,2.8,7.8c1.9,1.9,4.2,2.9,7.1,2.9C82,52.6,84.4,51.6,86.3,49.6z"/>
</g>
<g class="st0">
	<path class="st1" d="M126.6,23.3c2.3-1,4.9-1.4,7.9-1.4v10.4c-1.2-0.1-2.1-0.1-2.5-0.1c-3.2,0-5.7,0.9-7.6,2.7
		c-1.8,1.8-2.7,4.5-2.7,8.1v18.3h-11.2V22.5h10.7v5.1C122.5,25.7,124.3,24.3,126.6,23.3z"/>
</g>
<g class="st0">
	<path class="st1" d="M141.8,15.3c-1.3-1.2-1.9-2.7-1.9-4.5c0-1.8,0.6-3.3,1.9-4.5c1.3-1.2,3-1.8,5-1.8s3.7,0.6,5,1.7
		c1.3,1.2,1.9,2.6,1.9,4.3c0,1.9-0.6,3.4-1.9,4.6c-1.3,1.2-3,1.8-5,1.8S143.1,16.5,141.8,15.3z M141.2,22.5h11.2v38.7h-11.2V22.5z"
		/>
	<path class="st1" d="M192.3,26.2c3.2,2.9,4.8,7.2,4.8,12.9v22.1h-10.5v-4.8c-2.1,3.6-6,5.4-11.8,5.4c-3,0-5.6-0.5-7.7-1.5
		c-2.2-1-3.9-2.4-5-4.2c-1.2-1.8-1.7-3.8-1.7-6c0-3.6,1.4-6.4,4.1-8.5c2.7-2.1,6.9-3.1,12.6-3.1h8.9c0-2.4-0.7-4.3-2.2-5.7
		c-1.5-1.3-3.7-2-6.7-2c-2.1,0-4.1,0.3-6.1,1c-2,0.6-3.7,1.5-5.1,2.6l-4-7.8c2.1-1.5,4.6-2.6,7.6-3.5c3-0.8,6-1.2,9.1-1.2
		C184.5,21.9,189.1,23.3,192.3,26.2z M182.7,52.9c1.5-0.9,2.5-2.2,3.2-3.9v-4h-7.7c-4.6,0-6.9,1.5-6.9,4.5c0,1.4,0.6,2.6,1.7,3.4
		c1.1,0.8,2.7,1.3,4.6,1.3C179.5,54.2,181.2,53.8,182.7,52.9z"/>
	<path class="st1" d="M242.5,26.2c3,2.9,4.4,7.2,4.4,12.8v22.2h-11.2V40.8c0-3.1-0.7-5.4-2-6.9c-1.3-1.5-3.3-2.3-5.8-2.3
		c-2.8,0-5.1,0.9-6.8,2.6c-1.7,1.8-2.5,4.4-2.5,7.8v19.2h-11.2V22.5H218V27c1.5-1.6,3.3-2.9,5.5-3.8c2.2-0.9,4.6-1.3,7.3-1.3
		C235.6,21.9,239.5,23.3,242.5,26.2z"/>
	<path class="st1" d="M288.5,58.7c-4.2-2.3-7.5-5.4-9.9-9.3S275,40.9,275,36c0-4.9,1.2-9.4,3.6-13.4s5.7-7.1,9.9-9.3
		c4.2-2.3,8.9-3.4,14.1-3.4s9.9,1.1,14.1,3.4c4.2,2.3,7.5,5.4,9.9,9.3c2.4,4,3.6,8.4,3.6,13.4c0,4.9-1.2,9.4-3.6,13.4
		c-2.4,4-5.7,7.1-9.9,9.3s-8.9,3.4-14.1,3.4S292.7,60.9,288.5,58.7z M310.7,50.1c2.4-1.4,4.3-3.3,5.7-5.7c1.4-2.4,2.1-5.2,2.1-8.4
		c0-3.1-0.7-5.9-2.1-8.4c-1.4-2.4-3.3-4.4-5.7-5.7c-2.4-1.4-5.1-2.1-8.1-2.1s-5.7,0.7-8.1,2.1c-2.4,1.4-4.3,3.3-5.7,5.7
		s-2.1,5.2-2.1,8.4c0,3.1,0.7,5.9,2.1,8.4c1.4,2.4,3.3,4.4,5.7,5.7c2.4,1.4,5.1,2.1,8.1,2.1S308.3,51.4,310.7,50.1z"/>
</g>
<g class="st0">
	<path class="st1" d="M354.3,23.3c2.3-1,4.9-1.4,7.9-1.4v10.4c-1.2-0.1-2.1-0.1-2.5-0.1c-3.2,0-5.7,0.9-7.6,2.7
		c-1.8,1.8-2.7,4.5-2.7,8.1v18.3h-11.2V22.5h10.7v5.1C350.3,25.7,352.1,24.3,354.3,23.3z"/>
</g>
<g class="st0">
	<path class="st1" d="M361.7,41l23.3-17.6l4.1,5.8l-23.3,17.4L361.7,41z M369.9,7.8h11.2v53.4h-11.2V7.8z"/>
</g>
<g class="st0">
	<path class="st1" d="M399.9,59.2c-3.2-1.7-5.8-4.1-7.6-7.1c-1.8-3-2.7-6.5-2.7-10.3c0-3.8,0.9-7.3,2.7-10.3s4.4-5.4,7.6-7.1
		c3.2-1.7,6.9-2.6,11-2.6c4.1,0,7.7,0.9,10.9,2.6c3.2,1.7,5.7,4.1,7.6,7.1s2.7,6.5,2.7,10.3c0,3.8-0.9,7.3-2.7,10.3
		c-1.8,3-4.3,5.4-7.6,7.1c-3.2,1.7-6.9,2.6-10.9,2.6C406.8,61.8,403.2,60.9,399.9,59.2z M418,49.6c1.8-1.9,2.8-4.5,2.8-7.8
		c0-3.3-0.9-5.9-2.8-7.8c-1.8-1.9-4.2-2.9-7.1-2.9c-2.9,0-5.3,1-7.1,2.9c-1.9,1.9-2.8,4.5-2.8,7.8c0,3.3,0.9,5.9,2.8,7.8
		c1.9,1.9,4.2,2.9,7.1,2.9C413.8,52.6,416.2,51.6,418,49.6z M413.9,7.1H426l-13,10.4h-8.8L413.9,7.1z"/>
</g>
<g class="st0">
	<path class="st1" d="M500.8,22.5l-14,38.7h-10.8l-8.7-24l-9,24h-10.8l-14-38.7H444l9.1,26.2l9.5-26.2h9.5l9.2,26.2l9.4-26.2H500.8z
		"/>
</g>
<g class="st0">
	<path class="st1" d="M401.2,91.2c1.2,1.5,1.8,3.4,1.8,5.6c0,3.2-1.2,5.6-3.7,7.3c-2.5,1.7-6,2.5-10.7,2.5h-18.7V70.6h17.6
		c4.4,0,7.8,0.8,10.1,2.5s3.5,4,3.5,6.9c0,1.8-0.4,3.3-1.3,4.7c-0.8,1.4-2,2.5-3.5,3.2C398.4,88.6,400,89.7,401.2,91.2z M378.2,76.9
		v8.5h8.3c2.1,0,3.6-0.4,4.7-1.1c1.1-0.7,1.6-1.8,1.6-3.2s-0.5-2.5-1.6-3.2c-1.1-0.7-2.6-1.1-4.7-1.1H378.2z M392.9,99.3
		c1.1-0.7,1.7-1.8,1.7-3.3c0-3-2.2-4.5-6.6-4.5h-9.7v8.9h9.7C390.1,100.4,391.8,100.1,392.9,99.3z"/>
	<path class="st1" d="M408.7,68.5h8v38.2h-8V68.5z"/>
	<path class="st1" d="M429.6,105.3c-2.3-1.2-4.1-2.9-5.4-5.1c-1.3-2.2-2-4.6-2-7.4s0.7-5.2,2-7.4c1.3-2.2,3.1-3.9,5.4-5.1
		c2.3-1.2,4.9-1.8,7.9-1.8s5.5,0.6,7.8,1.8c2.3,1.2,4.1,2.9,5.4,5.1c1.3,2.2,2,4.6,2,7.4s-0.7,5.2-2,7.4c-1.3,2.2-3.1,3.9-5.4,5.1
		c-2.3,1.2-4.9,1.8-7.8,1.8S431.9,106.5,429.6,105.3z M442.5,98.4c1.3-1.4,2-3.3,2-5.6s-0.7-4.2-2-5.6c-1.3-1.4-3-2.1-5.1-2.1
		c-2.1,0-3.8,0.7-5.1,2.1c-1.3,1.4-2,3.3-2,5.6s0.7,4.2,2,5.6c1.3,1.4,3,2.1,5.1,2.1C439.5,100.5,441.2,99.8,442.5,98.4z"/>
	<path class="st1" d="M486.6,79v23.1c0,5.1-1.3,8.9-4,11.3c-2.6,2.5-6.5,3.7-11.6,3.7c-2.7,0-5.2-0.3-7.6-1c-2.4-0.7-4.4-1.6-6-2.8
		l3.2-5.8c1.2,1,2.6,1.7,4.4,2.3c1.8,0.6,3.6,0.8,5.4,0.8c2.8,0,4.8-0.6,6.2-1.9c1.3-1.3,2-3.2,2-5.7v-1.2c-2.1,2.3-5,3.5-8.8,3.5
		c-2.5,0-4.9-0.6-7-1.7s-3.8-2.7-5-4.7s-1.9-4.4-1.9-7s0.6-5,1.9-7s2.9-3.6,5-4.7s4.4-1.7,7-1.7c4,0,7.1,1.3,9.2,4V79H486.6z
		 M476.6,96.9c1.4-1.3,2-2.9,2-4.9s-0.7-3.7-2-4.9c-1.4-1.3-3.1-1.9-5.2-1.9c-2.1,0-3.9,0.6-5.3,1.9c-1.4,1.3-2.1,2.9-2.1,4.9
		s0.7,3.7,2.1,4.9c1.4,1.3,3.1,1.9,5.3,1.9C473.5,98.8,475.3,98.1,476.6,96.9z"/>
</g>
</svg>
