<svg id="Warstwa_1" data-name="Warstwa 1" xmlns="http://www.w3.org/2000/svg" viewBox="0 0 500.76 112.57"><defs><style>.cls-1{isolation:isolate;}.cls-2{fill:#333;}</style></defs><title>AOB</title><g class="cls-1"><g class="cls-1"><path class="cls-2" d="M39.82,50.4H16.42L12,61.2H0L22.47,10.8H34L56.52,61.2H44.28Zm-3.67-8.86-8-19.3-8,19.3Z" transform="translate(0 -4.54)"/></g><g class="cls-1"><path class="cls-2" d="M100.08,7.78V61.2H89.35V56.74q-4.18,5-12.1,5a20.11,20.11,0,0,1-9.9-2.45,17.52,17.52,0,0,1-6.95-7,21.28,21.28,0,0,1-2.52-10.51,21.28,21.28,0,0,1,2.52-10.51,17.53,17.53,0,0,1,6.95-7,20.13,20.13,0,0,1,9.9-2.45q7.42,0,11.59,4.68V7.78ZM86.26,49.64a10.79,10.79,0,0,0,2.81-7.81A10.79,10.79,0,0,0,86.26,34a10.08,10.08,0,0,0-14.18,0,10.79,10.79,0,0,0-2.81,7.81,10.79,10.79,0,0,0,2.81,7.81,10.08,10.08,0,0,0,14.18,0Z" transform="translate(0 -4.54)"/></g><g class="cls-1"><path class="cls-2" d="M126.62,23.33a20.17,20.17,0,0,1,7.88-1.44V32.26q-1.87-.14-2.52-.14a10.29,10.29,0,0,0-7.56,2.7q-2.74,2.7-2.74,8.1V61.2H110.45V22.46h10.73v5.11A12.49,12.49,0,0,1,126.62,23.33Z" transform="translate(0 -4.54)"/></g><g class="cls-1"><path class="cls-2" d="M141.77,15.26a5.84,5.84,0,0,1-1.94-4.46,5.84,5.84,0,0,1,1.94-4.46,7.13,7.13,0,0,1,5-1.8,7.3,7.3,0,0,1,5,1.73,5.54,5.54,0,0,1,1.94,4.32,6.11,6.11,0,0,1-1.94,4.64,7,7,0,0,1-5,1.84A7.13,7.13,0,0,1,141.77,15.26Zm-.58,7.2h11.23V61.2H141.19Z" transform="translate(0 -4.54)"/><path class="cls-2" d="M192.31,26.17q4.82,4.28,4.82,12.92V61.2H186.63V56.38q-3.17,5.4-11.81,5.4a18.32,18.32,0,0,1-7.74-1.51,11.54,11.54,0,0,1-5-4.18,10.86,10.86,0,0,1-1.73-6,10.09,10.09,0,0,1,4.07-8.5q4.07-3.1,12.56-3.1h8.93a7.16,7.16,0,0,0-2.23-5.65q-2.23-2-6.7-2a19.56,19.56,0,0,0-6.08,1,16.1,16.1,0,0,0-5.08,2.63l-4-7.85a24.34,24.34,0,0,1,7.6-3.46,34,34,0,0,1,9.11-1.22Q187.49,21.89,192.31,26.17Zm-9.58,26.71A7.29,7.29,0,0,0,185.91,49V45h-7.7q-6.91,0-6.91,4.54A4,4,0,0,0,173,53a7.62,7.62,0,0,0,4.64,1.26A9.78,9.78,0,0,0,182.74,52.88Z" transform="translate(0 -4.54)"/><path class="cls-2" d="M242.46,26.21q4.43,4.32,4.43,12.82V61.2H235.66V40.75q0-4.61-2-6.88a7.4,7.4,0,0,0-5.83-2.27A8.94,8.94,0,0,0,221,34.24q-2.52,2.63-2.52,7.81V61.2H207.29V22.46H218V27a14.92,14.92,0,0,1,5.54-3.78,19.34,19.34,0,0,1,7.27-1.33Q238,21.89,242.46,26.21Z" transform="translate(0 -4.54)"/><path class="cls-2" d="M288.47,58.68a25.11,25.11,0,0,1-9.86-9.32A25.45,25.45,0,0,1,275,36a25.45,25.45,0,0,1,3.56-13.36,25.12,25.12,0,0,1,9.86-9.32,31.19,31.19,0,0,1,28.26,0A25.22,25.22,0,0,1,330.19,36a25.22,25.22,0,0,1-13.46,22.68,31.19,31.19,0,0,1-28.26,0Zm22.21-8.6a14.74,14.74,0,0,0,5.65-5.72A16.83,16.83,0,0,0,318.38,36a16.84,16.84,0,0,0-2.05-8.35,14.73,14.73,0,0,0-5.65-5.72,16.87,16.87,0,0,0-16.13,0,14.73,14.73,0,0,0-5.65,5.72A16.83,16.83,0,0,0,286.85,36a16.82,16.82,0,0,0,2.05,8.35,14.73,14.73,0,0,0,5.65,5.72,16.87,16.87,0,0,0,16.13,0Z" transform="translate(0 -4.54)"/></g><g class="cls-1"><path class="cls-2" d="M354.35,23.33a20.18,20.18,0,0,1,7.88-1.44V32.26q-1.87-.14-2.52-.14a10.29,10.29,0,0,0-7.56,2.7q-2.74,2.7-2.74,8.1V61.2H338.18V22.46h10.73v5.11A12.49,12.49,0,0,1,354.35,23.33Z" transform="translate(0 -4.54)"/></g><g class="cls-1"><path class="cls-2" d="M361.72,41,385.05,23.4l4.1,5.76L365.9,46.58Zm8.14-33.19h11.23V61.2H369.86Z" transform="translate(0 -4.54)"/></g><g class="cls-1"><path class="cls-2" d="M399.93,59.22a19,19,0,0,1-7.6-7.09,19.54,19.54,0,0,1-2.74-10.3,19.54,19.54,0,0,1,2.74-10.3,19,19,0,0,1,7.6-7.09,24.79,24.79,0,0,1,21.92,0,19.06,19.06,0,0,1,7.56,7.09,19.54,19.54,0,0,1,2.74,10.3,19.54,19.54,0,0,1-2.74,10.3,19.06,19.06,0,0,1-7.56,7.09,24.78,24.78,0,0,1-21.92,0ZM418,49.64a10.87,10.87,0,0,0,2.77-7.81A10.87,10.87,0,0,0,418,34a9.35,9.35,0,0,0-7.09-2.92A9.47,9.47,0,0,0,403.78,34,10.79,10.79,0,0,0,401,41.83a10.79,10.79,0,0,0,2.81,7.81,9.48,9.48,0,0,0,7.13,2.92A9.36,9.36,0,0,0,418,49.64ZM413.93,7.13H426L413,17.5h-8.78Z" transform="translate(0 -4.54)"/></g><g class="cls-1"><path class="cls-2" d="M500.76,22.46l-14,38.74h-10.8l-8.71-24-9,24h-10.8l-14-38.74H444l9.14,26.21,9.5-26.21h9.5l9.22,26.21,9.43-26.21Z" transform="translate(0 -4.54)"/></g></g><g class="cls-1"><path class="cls-2" d="M401.22,91.22A9,9,0,0,1,403,96.86a8.34,8.34,0,0,1-3.68,7.29q-3.68,2.55-10.74,2.55H369.89V70.64h17.62q6.59,0,10.12,2.53A8,8,0,0,1,401.17,80a8.67,8.67,0,0,1-4.79,7.93A9.51,9.51,0,0,1,401.22,91.22Zm-23-14.3v8.5h8.29a8.38,8.38,0,0,0,4.69-1.08,3.61,3.61,0,0,0,1.6-3.19,3.55,3.55,0,0,0-1.6-3.17,8.54,8.54,0,0,0-4.69-1.06ZM392.9,99.33A3.71,3.71,0,0,0,394.57,96q0-4.48-6.65-4.48h-9.74v8.91h9.74A9.26,9.26,0,0,0,392.9,99.33Z" transform="translate(0 -4.54)"/><path class="cls-2" d="M408.74,68.47h8V106.7h-8Z" transform="translate(0 -4.54)"/><path class="cls-2" d="M429.58,105.28a13.59,13.59,0,0,1-5.44-5.07,14.84,14.84,0,0,1,0-14.74,13.6,13.6,0,0,1,5.44-5.07,17.73,17.73,0,0,1,15.69,0,13.65,13.65,0,0,1,5.41,5.07,14.84,14.84,0,0,1,0,14.74,13.65,13.65,0,0,1-5.41,5.07,17.73,17.73,0,0,1-15.69,0Zm12.93-6.85a8.87,8.87,0,0,0,0-11.18,6.69,6.69,0,0,0-5.08-2.09,6.78,6.78,0,0,0-5.1,2.09,8.78,8.78,0,0,0,0,11.18,6.78,6.78,0,0,0,5.1,2.09A6.69,6.69,0,0,0,442.51,98.43Z" transform="translate(0 -4.54)"/><path class="cls-2" d="M486.59,79v23.08q0,7.62-4,11.33T471,117.11a29,29,0,0,1-7.62-1,16.65,16.65,0,0,1-6-2.83l3.19-5.77a13.16,13.16,0,0,0,4.43,2.29,17.63,17.63,0,0,0,5.36.85q4.17,0,6.16-1.88t2-5.69v-1.18q-3.14,3.45-8.76,3.45a14.71,14.71,0,0,1-7-1.67,12.76,12.76,0,0,1-5-4.71,14.16,14.16,0,0,1,0-14,12.76,12.76,0,0,1,5-4.71,14.71,14.71,0,0,1,7-1.67q6,0,9.17,4V79Zm-10,17.9a7,7,0,0,0,0-9.84,7.41,7.41,0,0,0-5.23-1.88A7.5,7.5,0,0,0,466.13,87a6.9,6.9,0,0,0,0,9.84,7.49,7.49,0,0,0,5.25,1.88A7.4,7.4,0,0,0,476.62,96.89Z" transform="translate(0 -4.54)"/></g></svg>